<?xml version="1.0" standalone="no"?>
<!DOCTYPE svg PUBLIC "-//W3C//DTD SVG 20010904//EN"
 "http://www.w3.org/TR/2001/REC-SVG-20010904/DTD/svg10.dtd">
<svg version="1.0" xmlns="http://www.w3.org/2000/svg"
 width="512.000000pt" height="512.000000pt" viewBox="0 0 512.000000 512.000000"
 preserveAspectRatio="xMidYMid meet">

<g transform="translate(0.000000,512.000000) scale(0.100000,-0.100000)"
fill="#000000" stroke="none">
<path d="M238 4666 c-100 -36 -166 -97 -211 -193 l-22 -48 0 -1865 0 -1865 26
-56 c33 -69 91 -129 161 -166 l53 -28 970 0 970 0 46 23 c71 35 122 84 160
154 l34 63 0 1875 0 1875 -25 50 c-31 64 -101 134 -165 165 l-50 25 -955 2
c-769 2 -962 0 -992 -11z m1063 -570 c209 -45 349 -215 349 -426 0 -216 -150
-391 -369 -432 -124 -23 -281 29 -374 125 -239 245 -117 660 216 732 80 17 99
17 178 1z m417 -1049 c70 -37 128 -97 161 -166 l26 -56 0 -285 0 -285 -33 -67
c-38 -77 -92 -129 -169 -164 l-53 -24 0 -354 c0 -339 -1 -358 -22 -413 -28
-77 -100 -152 -181 -189 -61 -28 -66 -29 -232 -29 -166 0 -171 1 -232 29 -73
33 -144 103 -176 174 -21 45 -22 61 -25 419 l-3 372 -29 6 c-41 9 -132 77
-163 122 -59 85 -62 104 -62 398 0 238 2 276 19 323 26 76 112 165 191 197
l60 25 435 -3 435 -2 53 -28z"/>
<path d="M1163 3930 c-118 -24 -201 -121 -211 -247 -4 -56 -1 -70 28 -129 123
-251 497 -167 500 112 1 169 -152 297 -317 264z"/>
<path d="M795 2896 c-40 -17 -82 -67 -95 -114 -13 -48 -13 -446 1 -495 14 -51
69 -104 116 -112 61 -11 100 -25 115 -42 10 -13 14 -106 18 -428 l5 -412 28
-36 c45 -59 77 -71 207 -75 130 -4 184 6 230 44 61 52 60 46 60 474 0 472 -6
448 114 471 64 12 110 48 131 102 14 36 16 79 13 283 -3 237 -3 241 -28 277
-13 20 -41 45 -61 56 -35 20 -51 21 -430 21 -305 -1 -401 -4 -424 -14z"/>
<path d="M2924 4666 c-59 -19 -130 -71 -169 -124 -70 -97 -66 55 -63 -2002 l3
-1855 25 -50 c31 -64 101 -134 165 -165 l50 -25 970 0 970 0 53 28 c70 37 128
97 161 166 l26 56 0 1865 0 1865 -26 56 c-33 69 -91 129 -161 166 l-53 28
-955 2 c-758 1 -963 -1 -996 -11z m1069 -571 c136 -29 244 -114 304 -241 126
-264 -38 -567 -332 -616 -180 -30 -373 75 -455 246 -82 173 -33 400 112 519
74 61 182 102 278 106 14 0 56 -6 93 -14z m119 -1039 c31 -13 69 -34 86 -47
76 -63 86 -86 263 -616 93 -279 169 -524 169 -544 0 -62 -28 -134 -71 -183
-62 -70 -105 -88 -224 -95 l-100 -6 -5 -180 c-6 -204 -13 -230 -89 -298 -68
-61 -100 -71 -236 -71 -136 -1 -181 14 -248 81 -71 71 -82 106 -85 301 l-4
172 -88 0 c-80 0 -94 3 -151 33 -95 49 -149 138 -149 246 0 31 50 194 161 530
89 267 168 500 177 516 39 79 109 138 200 171 24 9 89 13 187 13 134 1 156 -2
207 -23z"/>
<path d="M3840 3926 c-124 -33 -201 -133 -200 -260 1 -99 47 -177 132 -225
131 -75 291 -30 364 101 25 46 29 63 29 128 0 85 -20 134 -77 190 -61 62 -165
89 -248 66z"/>
<path d="M3738 2887 c-21 -12 -45 -33 -54 -45 -22 -32 -334 -970 -334 -1005 0
-20 11 -40 34 -63 l34 -34 126 0 c139 0 182 -12 191 -53 2 -12 6 -115 7 -229
l3 -208 31 -31 c28 -28 40 -32 102 -37 82 -5 133 9 162 45 19 24 20 40 20 225
0 220 8 260 55 278 15 6 82 10 150 10 117 0 125 1 153 25 57 48 58 43 -118
570 -116 349 -169 494 -188 517 -41 48 -77 58 -214 58 -110 0 -127 -2 -160
-23z"/>
</g>
</svg>
