<?xml version="1.0" standalone="no"?>
<!DOCTYPE svg PUBLIC "-//W3C//DTD SVG 20010904//EN"
 "http://www.w3.org/TR/2001/REC-SVG-20010904/DTD/svg10.dtd">
<svg version="1.0" xmlns="http://www.w3.org/2000/svg"
 width="512.000000pt" height="512.000000pt" viewBox="0 0 512.000000 512.000000"
 preserveAspectRatio="xMidYMid meet">

<g transform="translate(0.000000,512.000000) scale(0.100000,-0.100000)"
fill="#000000" stroke="none">
<path d="M560 5113 c-95 -16 -192 -66 -260 -133 -183 -184 -183 -477 1 -661
255 -255 685 -141 782 207 32 113 18 233 -39 347 -32 61 -125 154 -191 190
-81 44 -205 65 -293 50z"/>
<path d="M1827 5110 c-117 -20 -248 -113 -312 -221 -46 -79 -65 -148 -65 -239
0 -417 498 -626 795 -334 146 144 181 353 90 540 -92 188 -294 289 -508 254z"/>
<path d="M4384 5106 c-88 -20 -160 -60 -224 -125 -96 -96 -140 -201 -140 -333
0 -304 290 -529 583 -453 192 50 326 205 351 406 21 169 -81 370 -229 453
-103 57 -231 77 -341 52z"/>
<path d="M1762 3806 c-145 -54 -241 -153 -292 -301 -18 -52 -28 -165 -15 -165
3 0 29 16 58 35 228 151 554 153 800 5 36 -22 69 -40 72 -40 3 0 3 28 -1 63
-23 201 -149 354 -343 413 -73 22 -204 17 -279 -10z"/>
<path d="M3065 3812 c-81 -27 -136 -61 -197 -123 -223 -222 -158 -605 127
-744 314 -154 675 71 675 420 0 203 -127 377 -325 445 -73 25 -207 26 -280 2z"/>
<path d="M4332 3806 c-313 -117 -414 -491 -200 -748 169 -203 483 -218 679
-31 228 217 178 593 -98 748 -108 60 -267 73 -381 31z"/>
<path d="M1796 3173 c-142 -37 -266 -150 -323 -294 -16 -39 -18 -100 -23 -564
l-5 -520 -65 -6 c-235 -23 -420 -231 -420 -472 0 -61 29 -165 63 -227 22 -41
133 -158 426 -450 319 -318 413 -407 483 -453 315 -207 693 -242 1040 -97 42
17 117 58 168 92 274 180 449 461 489 783 17 136 14 624 -4 708 -32 154 -145
302 -284 372 -121 60 -160 65 -578 65 l-371 0 -4 353 c-5 381 -6 386 -66 494
-33 60 -117 142 -179 175 -103 57 -231 72 -347 41z"/>
</g>
</svg>
