<?xml version="1.0" standalone="no"?>
<!DOCTYPE svg PUBLIC "-//W3C//DTD SVG 20010904//EN"
 "http://www.w3.org/TR/2001/REC-SVG-20010904/DTD/svg10.dtd">
<svg version="1.0" xmlns="http://www.w3.org/2000/svg"
 width="512.000000pt" height="512.000000pt" viewBox="0 0 512.000000 512.000000"
 preserveAspectRatio="xMidYMid meet">

<g transform="translate(0.000000,512.000000) scale(0.100000,-0.100000)"
fill="#000000" stroke="none">
<path d="M480 5104 c-8 -3 -43 -14 -77 -25 -93 -30 -151 -66 -224 -138 -72
-73 -107 -129 -141 -229 l-23 -67 0 -2085 0 -2085 23 -67 c34 -100 69 -156
141 -229 71 -70 124 -104 223 -141 l63 -23 2068 -3 c2283 -3 2128 -7 2265 61
78 38 195 147 235 220 14 26 36 78 49 115 l23 67 0 2085 0 2085 -23 67 c-13
37 -35 89 -49 115 -40 73 -157 182 -233 220 -139 68 28 63 -2246 62 -1133 0
-2066 -3 -2074 -5z m1232 -876 c75 -35 128 -85 169 -160 32 -60 34 -68 34
-163 -1 -85 -4 -107 -24 -145 -57 -109 -132 -169 -245 -197 -152 -37 -313 36
-392 179 -27 50 -29 60 -29 163 0 100 2 115 27 160 45 85 141 162 233 186 57
15 167 4 227 -23z m2193 -816 c190 -304 345 -557 345 -562 0 -6 -257 -10 -700
-10 -385 0 -700 3 -700 6 0 6 64 111 233 382 56 89 183 292 282 452 99 159
183 288 187 287 4 -1 163 -251 353 -555z m-2035 -166 c177 -56 316 -192 377
-371 l28 -80 0 -400 0 -400 -142 -3 -143 -3 0 -564 0 -565 -425 0 -425 0 0
565 0 565 -140 0 -140 0 0 388 c0 430 2 446 66 581 65 139 220 260 379 295
100 22 486 16 565 -8z m2380 -976 c0 -12 -688 -1114 -698 -1117 -4 -1 -88 128
-187 287 -99 160 -226 363 -282 452 -169 271 -233 376 -233 382 0 3 315 6 700
6 443 0 700 -4 700 -10z"/>
</g>
</svg>
