<?xml version="1.0" standalone="no"?>
<!DOCTYPE svg PUBLIC "-//W3C//DTD SVG 20010904//EN"
 "http://www.w3.org/TR/2001/REC-SVG-20010904/DTD/svg10.dtd">
<svg version="1.0" xmlns="http://www.w3.org/2000/svg"
 width="512.000000pt" height="512.000000pt" viewBox="0 0 512.000000 512.000000"
 preserveAspectRatio="xMidYMid meet">

<g transform="translate(0.000000,512.000000) scale(0.100000,-0.100000)"
fill="#000000" stroke="none">
<path d="M747 5110 c-75 -13 -185 -49 -252 -82 -87 -44 -141 -83 -219 -157
-118 -114 -192 -234 -243 -398 l-28 -88 0 -1825 0 -1825 28 -88 c96 -308 306
-518 612 -614 l90 -28 1815 0 c2057 0 1870 -8 2065 84 229 109 392 301 472
556 l28 90 0 1825 0 1825 -23 78 c-98 340 -363 584 -697 642 -76 13 -314 15
-1844 14 -966 -1 -1778 -5 -1804 -9z m3653 -457 c111 -46 207 -142 253 -253
l22 -55 5 -1760 c4 -1240 2 -1775 -6 -1811 -17 -80 -53 -144 -118 -210 -66
-65 -137 -105 -224 -123 -38 -8 -545 -11 -1770 -11 -1872 0 -1785 -2 -1893 56
-75 41 -147 119 -188 204 l-36 75 -3 1770 c-2 1592 -1 1775 14 1825 41 143
149 255 292 301 55 17 133 18 1827 16 l1770 -2 55 -22z"/>
<path d="M1860 3854 c-138 -30 -265 -121 -335 -239 -22 -37 -65 -150 -110
-291 l-75 -232 -128 -4 c-143 -4 -178 -17 -219 -78 -20 -29 -23 -46 -23 -134
0 -83 4 -107 20 -134 27 -44 74 -70 140 -78 l56 -6 -12 -61 c-29 -138 -35
-288 -32 -764 3 -468 4 -482 24 -510 11 -15 40 -38 64 -50 40 -21 58 -23 200
-23 177 0 210 7 257 52 45 43 53 80 53 236 l0 132 820 0 820 0 0 -132 c0 -156
8 -193 53 -236 47 -45 80 -52 257 -52 176 0 219 12 261 71 l24 34 3 480 c3
474 -3 624 -32 762 l-12 61 56 6 c66 8 113 34 140 78 16 27 20 51 20 134 0 88
-3 105 -23 134 -41 61 -76 74 -219 78 l-128 4 -75 232 c-48 150 -88 253 -112
295 -72 120 -194 205 -338 236 -100 21 -1297 21 -1395 -1z m1377 -335 c72 -35
88 -66 179 -354 67 -211 83 -270 73 -281 -10 -12 -146 -14 -933 -12 -859 3
-921 4 -924 20 -2 9 34 134 79 278 90 283 107 317 183 351 38 17 80 19 670 19
620 0 630 0 673 -21z m316 -1079 c26 -29 27 -34 27 -146 0 -114 0 -116 -29
-145 l-29 -29 -205 0 c-190 0 -206 1 -230 20 -35 28 -40 63 -22 148 18 86 28
107 58 124 31 17 324 68 367 63 23 -3 44 -15 63 -35z m-1721 4 c190 -30 202
-37 224 -130 21 -89 18 -128 -12 -163 l-26 -31 -204 0 c-226 0 -243 4 -263 62
-14 40 -14 186 0 227 12 35 50 60 91 61 15 0 100 -12 190 -26z"/>
</g>
</svg>
