<?xml version="1.0" standalone="no"?>
<!DOCTYPE svg PUBLIC "-//W3C//DTD SVG 20010904//EN"
 "http://www.w3.org/TR/2001/REC-SVG-20010904/DTD/svg10.dtd">
<svg version="1.0" xmlns="http://www.w3.org/2000/svg"
 width="512.000000pt" height="512.000000pt" viewBox="0 0 512.000000 512.000000"
 preserveAspectRatio="xMidYMid meet">

<g transform="translate(0.000000,512.000000) scale(0.100000,-0.100000)"
fill="#000000" stroke="none">
<path d="M3842 5100 c-100 -26 -174 -71 -253 -150 -309 -312 -145 -835 291
-926 281 -59 574 131 641 416 19 81 14 212 -10 291 -44 139 -152 264 -286 329
-130 63 -249 75 -383 40z"/>
<path d="M3641 3890 c-57 -12 -124 -52 -154 -93 -14 -17 -136 -203 -272 -412
-136 -209 -251 -383 -255 -388 -3 -4 -42 0 -86 8 -112 23 -109 21 -85 51 26
33 27 85 3 107 -10 10 -35 17 -54 17 -31 0 -43 -8 -87 -58 -43 -51 -54 -58
-79 -54 -48 7 -111 -17 -157 -59 -51 -47 -68 -91 -69 -176 l-1 -62 -389 -446
c-214 -245 -391 -444 -393 -442 -1 2 -59 158 -127 348 -72 197 -133 349 -142
356 -26 19 -71 16 -93 -6 -10 -10 -26 -45 -35 -77 -10 -33 -19 -65 -22 -73 -3
-9 -18 -1 -49 28 -52 47 -85 52 -120 17 -20 -20 -24 -37 -30 -114 l-8 -92 -53
-30 c-51 -29 -83 -66 -115 -134 -12 -24 -35 -37 -147 -82 -145 -57 -159 -66
-173 -102 -13 -34 21 -98 92 -176 99 -107 230 -166 371 -166 l67 0 9 -33 c5
-17 20 -84 33 -149 l23 -116 -55 -64 c-31 -34 -259 -296 -507 -580 -249 -285
-457 -529 -462 -543 -21 -56 40 -112 94 -87 13 5 235 254 496 551 260 298 474
541 475 539 1 -2 12 -50 25 -108 25 -122 47 -175 84 -209 l26 -24 0 -358 0
-358 26 -20 c39 -31 126 -29 158 2 23 23 33 72 107 559 17 112 26 149 38 152
33 10 854 147 861 144 4 -2 26 -27 49 -56 28 -35 125 -114 304 -248 144 -108
268 -202 275 -209 11 -10 9 -36 -12 -154 -24 -128 -25 -144 -12 -170 19 -36
33 -41 107 -41 50 0 64 4 84 25 14 13 25 28 25 33 0 5 18 107 40 227 23 119
38 226 34 237 -3 12 -43 71 -88 132 -45 61 -85 116 -89 122 -4 7 4 36 17 65
30 68 55 170 63 252 6 63 -17 209 -39 250 -42 79 141 -50 216 -152 l35 -48 3
-490 3 -490 30 -49 c97 -156 319 -146 408 20 l22 41 3 808 3 807 84 0 84 0 3
-802 c3 -749 4 -806 21 -843 25 -55 63 -93 122 -121 62 -29 125 -30 185 -3 60
27 88 54 116 114 l24 50 0 851 0 852 23 5 c68 17 163 18 199 3 115 -49 255 18
287 138 16 61 70 856 60 884 -13 34 -617 861 -658 901 -19 18 -55 43 -80 54
-43 20 -65 21 -361 23 -173 2 -335 -1 -359 -6z m968 -1018 c43 -59 60 -90 56
-105 -2 -12 -14 -177 -26 -367 -12 -190 -23 -346 -23 -346 -1 -1 -20 -5 -43
-9 l-43 -7 0 468 c0 268 4 464 9 459 5 -6 36 -48 70 -93z m-1191 -977 c-2 -1
-388 -53 -858 -114 -470 -62 -869 -114 -886 -117 -28 -5 -33 -2 -42 24 -10 29
-2 38 399 498 266 305 416 468 427 467 9 0 154 -31 322 -67 168 -37 323 -65
345 -64 l40 3 125 189 125 189 3 -503 c1 -277 1 -504 0 -505z m2 -335 l0 -180
-62 46 c-148 109 -235 138 -527 174 -129 17 -236 31 -237 33 -4 4 749 104 794
106 l32 1 0 -180z"/>
</g>
</svg>
