<?xml version="1.0" standalone="no"?>
<!DOCTYPE svg PUBLIC "-//W3C//DTD SVG 20010904//EN"
 "http://www.w3.org/TR/2001/REC-SVG-20010904/DTD/svg10.dtd">
<svg version="1.0" xmlns="http://www.w3.org/2000/svg"
 width="512.000000pt" height="512.000000pt" viewBox="0 0 512.000000 512.000000"
 preserveAspectRatio="xMidYMid meet">
<metadata>
Created by potrace 1.16, written by Peter Selinger 2001-2019
</metadata>
<g transform="translate(0.000000,512.000000) scale(0.100000,-0.100000)"
fill="#000000" stroke="none">
<path d="M1960 4819 c0 -316 13 -415 72 -558 42 -100 154 -268 214 -319 51
-44 135 -89 184 -98 16 -4 30 -10 30 -15 0 -5 43 -9 95 -9 52 0 95 4 95 8 0 5
22 14 50 21 55 14 150 72 192 117 61 67 144 195 179 279 66 158 79 251 79 574
l0 281 -595 0 -595 0 0 -281z m420 -424 c0 -73 87 -145 174 -145 88 0 176 71
176 141 l0 29 81 0 c72 0 80 -2 76 -17 -3 -10 -8 -36 -12 -58 -9 -54 -29 -90
-83 -148 -55 -58 -97 -81 -178 -97 -48 -9 -74 -9 -120 0 -85 18 -122 40 -182
109 -53 60 -74 104 -85 174 l-6 37 80 0 c78 0 79 0 79 -25z"/>
<path d="M1706 4827 c-58 -33 -79 -67 -84 -136 -4 -52 -1 -67 22 -106 30 -50
86 -85 137 -85 l32 0 -7 92 c-3 50 -6 129 -6 175 l0 83 -27 0 c-16 0 -46 -10
-67 -23z"/>
<path d="M3310 4768 c0 -47 -3 -126 -6 -176 l-7 -92 32 0 c55 0 98 25 132 77
27 43 30 54 27 110 -6 92 -55 149 -136 160 l-42 6 0 -85z"/>
<path d="M2240 3741 c0 -28 -31 -240 -40 -272 -9 -32 -18 -39 -104 -80 -52
-24 -95 -48 -95 -54 -1 -15 84 -70 161 -104 133 -61 215 -76 398 -75 183 1
264 16 390 75 77 36 160 90 159 104 0 6 -38 28 -84 49 -47 22 -92 47 -101 57
-11 12 -23 66 -36 161 -11 79 -21 144 -23 146 -2 2 -16 -3 -32 -11 -164 -84
-366 -82 -575 8 -11 4 -18 3 -18 -4z"/>
<path d="M1710 3306 c-19 -6 -40 -14 -46 -18 -5 -4 -105 -34 -220 -67 -116
-33 -232 -70 -259 -82 -50 -22 -167 -113 -221 -171 -47 -50 -100 -145 -124
-223 -12 -38 -28 -79 -35 -90 -6 -11 -47 -132 -90 -270 -43 -137 -84 -261 -91
-275 -15 -26 -154 -461 -154 -479 0 -15 726 -15 735 -1 3 6 -4 10 -17 10 -27
1 -60 42 -60 75 0 13 9 39 20 57 11 18 53 92 93 163 40 72 85 150 100 175 15
25 49 83 75 130 61 112 78 130 124 130 44 0 63 -18 115 -115 21 -38 51 -88 65
-110 15 -22 48 -78 72 -125 79 -149 110 -200 121 -200 7 0 22 8 34 18 21 16
22 25 26 217 l3 200 50 145 c28 80 52 152 55 160 2 8 6 17 9 20 4 3 11 23 18
45 18 64 70 133 116 157 55 29 146 29 201 1 22 -12 54 -41 72 -65 45 -63 56
-116 44 -213 -5 -44 -8 -81 -6 -83 5 -5 217 128 230 144 32 39 221 114 365
145 97 21 209 -36 246 -125 16 -37 24 -45 52 -50 42 -6 97 -47 118 -88 9 -17
16 -52 16 -78 0 -47 -24 -110 -42 -110 -16 0 -11 -18 16 -60 53 -79 23 -193
-66 -255 -22 -15 -40 -31 -40 -36 0 -4 10 -24 21 -44 42 -71 22 -183 -43 -241
-12 -12 -66 -50 -118 -84 -52 -35 -99 -69 -105 -76 -28 -33 -291 -163 -332
-164 -7 0 -13 -4 -13 -9 0 -8 -76 -31 -170 -50 -25 -6 -92 -15 -149 -21 -58
-5 -114 -16 -125 -24 -12 -7 -50 -41 -86 -75 -36 -33 -80 -71 -97 -83 -18 -13
-33 -28 -33 -33 0 -6 26 -24 57 -40 32 -17 63 -35 70 -41 6 -6 49 -22 95 -35
71 -20 105 -24 238 -24 181 0 256 17 383 85 129 70 206 133 285 233 115 146
165 274 181 462 12 143 6 139 238 143 124 2 195 -1 214 -8 37 -16 52 -56 44
-114 l-7 -46 332 0 332 0 -5 28 c-7 38 -171 543 -184 567 -6 11 -45 128 -87
261 -42 133 -83 254 -91 270 -8 16 -15 33 -15 38 0 24 -97 171 -138 210 -75
70 -149 125 -199 147 -25 11 -141 47 -257 80 -116 33 -216 65 -221 69 -6 5
-31 14 -57 20 l-47 12 -65 -59 c-35 -32 -92 -74 -126 -93 -33 -19 -77 -45 -97
-58 -128 -83 -398 -134 -602 -113 -143 15 -332 67 -376 104 -5 4 -48 29 -94
55 -46 26 -111 73 -145 104 -64 61 -70 63 -126 44z"/>
<path d="M2275 2632 c-14 -11 -42 -81 -80 -202 l-60 -185 -5 -236 c-6 -275 0
-260 -113 -304 -39 -16 -80 -37 -89 -48 -12 -13 -36 -21 -78 -24 l-61 -6 6
-41 c23 -147 71 -259 164 -383 76 -101 88 -111 104 -90 7 8 48 44 92 78 44 35
106 88 138 118 l58 55 112 7 c62 4 147 15 190 24 85 18 229 63 237 75 3 4 34
22 70 40 86 43 155 88 268 172 73 55 92 75 90 92 -6 39 -42 30 -140 -36 -51
-34 -112 -78 -134 -98 -23 -19 -55 -43 -72 -53 l-31 -17 -35 57 c-20 32 -36
63 -37 68 0 6 35 34 78 63 43 29 87 61 98 71 11 10 72 53 135 96 63 43 120 83
125 90 6 6 32 26 58 44 36 25 47 38 45 54 -7 51 -73 24 -363 -148 -49 -30 -95
-54 -100 -55 -11 0 -81 128 -74 134 2 2 65 36 139 77 74 40 140 78 146 84 6 6
66 40 132 75 112 60 122 67 122 94 l0 29 -72 -6 c-46 -3 -90 -13 -118 -28 -77
-38 -294 -162 -308 -176 -16 -15 -53 -36 -56 -31 -44 71 -77 130 -75 132 2 1
36 20 74 41 39 21 72 42 75 46 17 26 207 121 289 145 11 4 10 8 -4 24 -18 20
-80 28 -87 11 -1 -5 -47 -23 -101 -40 -87 -28 -233 -106 -274 -147 -7 -7 -68
-47 -135 -90 -68 -43 -127 -83 -133 -90 -5 -7 -30 -23 -54 -35 -40 -20 -46
-21 -70 -8 -53 30 -55 54 -15 180 44 143 57 269 29 299 -22 25 -72 26 -100 2z"/>
<path d="M1525 2130 c3 -5 2 -10 -2 -10 -5 0 -24 -30 -43 -67 -19 -38 -54
-101 -77 -141 -24 -41 -43 -78 -43 -83 0 -5 -4 -9 -10 -9 -5 0 -10 -7 -10 -15
0 -8 9 -15 20 -15 32 0 67 -21 79 -47 6 -13 11 -52 11 -86 0 -72 22 -218 46
-297 18 -64 125 -279 163 -330 65 -87 166 -192 259 -269 66 -54 211 -130 317
-167 44 -15 85 -31 91 -35 23 -18 194 -39 314 -39 121 0 292 21 314 39 6 5 43
19 81 31 89 29 259 115 305 155 19 17 57 48 84 69 84 67 203 213 253 311 25
49 50 92 54 95 15 10 69 193 84 284 22 138 30 126 -80 126 -94 0 -95 0 -95
-24 0 -70 -71 -314 -102 -351 -5 -5 -32 -48 -61 -94 -87 -140 -215 -258 -360
-331 -54 -27 -117 -55 -140 -62 -23 -6 -44 -15 -47 -19 -13 -19 -173 -42 -290
-41 -118 0 -277 23 -290 41 -3 4 -30 15 -60 25 -178 57 -371 206 -474 365 -68
106 -126 227 -147 311 -29 111 -43 256 -29 290 12 28 47 50 80 50 25 0 25 20
2 51 -20 26 -78 128 -132 232 -24 45 -41 67 -53 67 -10 0 -15 -4 -12 -10z"/>
<path d="M495 1438 c-13 -64 -55 -453 -55 -520 0 -91 30 -185 78 -246 39 -48
153 -126 207 -141 81 -22 314 -3 335 27 3 5 46 23 95 42 140 52 324 131 339
145 7 7 40 27 74 44 61 31 72 43 52 56 -6 4 -38 43 -72 88 -66 89 -123 203
-183 365 -20 56 -40 102 -44 102 -11 0 -255 -102 -267 -111 -6 -5 -43 -22 -81
-38 l-71 -29 -29 72 -29 73 103 39 c56 21 103 42 103 47 0 4 -124 7 -275 7
l-275 0 -5 -22z"/>
<path d="M3947 1389 c-10 -40 -24 -86 -32 -103 -8 -17 -32 -73 -55 -125 l-40
-94 0 -524 0 -523 260 0 260 0 0 720 0 720 -188 0 -188 0 -17 -71z"/>
<path d="M3640 822 c0 -20 -135 -143 -226 -206 -166 -116 -332 -186 -514 -216
-41 -7 -81 -17 -87 -23 -16 -12 -330 -12 -346 0 -6 6 -46 16 -87 23 -148 25
-369 110 -460 179 -87 64 -169 121 -175 121 -5 0 -73 -32 -152 -72 l-143 -72
0 -268 0 -268 1105 0 1105 0 0 405 c0 263 -3 405 -10 405 -5 0 -10 -4 -10 -8z"/>
</g>
</svg>
