<?xml version="1.0" standalone="no"?>
<!DOCTYPE svg PUBLIC "-//W3C//DTD SVG 20010904//EN"
 "http://www.w3.org/TR/2001/REC-SVG-20010904/DTD/svg10.dtd">
<svg version="1.0" xmlns="http://www.w3.org/2000/svg"
 width="512.000000pt" height="512.000000pt" viewBox="0 0 512.000000 512.000000"
 preserveAspectRatio="xMidYMid meet">

<g transform="translate(0.000000,512.000000) scale(0.100000,-0.100000)"
fill="#000000" stroke="none">
<path d="M1176 4741 c-176 -58 -296 -224 -296 -411 0 -186 116 -348 295 -411
49 -17 77 -20 155 -17 81 3 105 8 163 35 88 42 163 117 208 208 33 67 34 74
34 185 0 111 -1 118 -34 185 -45 91 -120 166 -208 208 -59 27 -81 32 -163 34
-73 2 -109 -1 -154 -16z"/>
<path d="M1197 3740 c-189 -16 -225 -22 -275 -45 -101 -46 -171 -136 -192
-243 -7 -40 36 -677 75 -1102 6 -64 2 -56 -289 527 -258 519 -299 595 -328
613 -18 11 -46 20 -63 20 -63 0 -125 -63 -125 -127 0 -18 105 -241 266 -563
146 -294 288 -582 315 -639 l49 -104 49 64 c198 260 511 418 840 423 l106 1
-36 55 c-20 30 -87 138 -148 240 l-112 185 213 -217 c124 -127 226 -222 243
-229 17 -6 192 -63 390 -126 392 -126 440 -135 504 -98 19 11 48 37 64 58 63
78 42 217 -42 272 -20 13 -193 74 -386 135 -192 61 -352 114 -355 118 -3 4
-82 85 -175 181 -174 178 -177 185 -47 100 41 -27 77 -49 81 -49 12 0 -17 300
-34 351 -22 65 -100 150 -170 184 -72 36 -149 38 -418 15z"/>
<path d="M3996 3180 c-609 -275 -1111 -501 -1113 -504 -3 -3 0 -28 7 -57 19
-78 7 -153 -38 -242 -2 -4 16 6 40 22 24 16 534 250 1134 519 l1089 488 3 137
c1 75 -1 137 -5 136 -4 0 -507 -225 -1117 -499z"/>
<path d="M1425 2424 c-344 -55 -604 -246 -746 -548 -161 -345 -95 -757 165
-1034 150 -158 322 -253 533 -293 94 -18 319 -6 412 21 142 41 275 114 384
210 l47 42 -2 260 -3 261 -180 58 c-99 32 -181 59 -181 59 -1 0 -5 -16 -9 -36
-3 -20 -14 -51 -22 -70 -9 -19 -15 -35 -12 -37 2 -2 84 -30 182 -61 97 -31
177 -60 177 -64 0 -15 -67 -119 -106 -167 -22 -26 -66 -67 -99 -92 -67 -51
-196 -117 -206 -105 -4 4 -24 88 -44 187 -21 99 -39 181 -39 182 -1 1 -20 -4
-41 -12 -22 -8 -55 -14 -72 -15 -18 0 -33 -3 -33 -6 0 -5 61 -290 75 -350 4
-19 0 -22 -33 -26 -60 -8 -179 9 -262 37 -71 24 -230 116 -230 134 0 4 63 65
140 135 l140 127 -38 37 c-22 20 -44 46 -49 56 -10 18 -24 8 -151 -107 -77
-70 -145 -127 -151 -127 -20 0 -99 182 -117 270 -15 77 -16 252 -1 267 3 2 84
-21 179 -51 96 -31 180 -56 186 -56 7 0 12 9 12 20 0 11 8 42 18 68 l19 49
-179 58 c-118 39 -178 63 -178 73 0 23 84 144 136 196 72 71 252 181 269 164
3 -3 23 -84 44 -182 21 -97 41 -179 44 -182 3 -4 20 -1 38 5 18 6 45 11 61 11
16 0 31 6 34 15 3 8 -10 88 -30 179 -20 91 -36 173 -36 182 0 15 10 16 98 11
152 -9 282 -58 407 -153 l27 -20 -141 -128 c-78 -70 -141 -130 -141 -133 0 -2
15 -19 33 -36 18 -18 39 -42 47 -54 15 -22 17 -21 158 108 79 72 144 130 146
128 24 -28 65 -110 87 -171 l26 -77 6 167 c3 92 11 196 17 230 l12 64 -53 55
c-110 112 -284 208 -451 248 -64 16 -268 27 -323 19z"/>
<path d="M2191 2348 c82 -69 110 -90 113 -87 2 2 8 14 15 26 10 20 7 23 -42
41 -28 11 -63 23 -77 26 -21 6 -23 5 -9 -6z"/>
<path d="M2715 2262 c-33 -18 -184 -24 -241 -8 -30 8 -31 6 -52 -41 -11 -27
-31 -82 -43 -123 -23 -74 -23 -84 -27 -697 -1 -343 0 -623 3 -623 4 0 61 19
126 42 l119 43 0 535 c0 586 3 616 59 736 16 35 44 84 61 109 17 25 30 45 28
45 -2 -1 -16 -8 -33 -18z"/>
<path d="M2765 2054 c-31 -74 -35 -121 -35 -451 l0 -333 36 -15 c49 -20 140
-19 189 4 50 22 109 86 125 136 7 20 10 63 8 94 -4 50 -21 86 -147 321 -79
146 -147 269 -152 274 -4 5 -15 -9 -24 -30z"/>
<path d="M1495 1691 c-104 -26 -169 -108 -169 -212 1 -109 79 -195 186 -206
182 -19 298 168 202 324 -44 70 -142 112 -219 94z"/>
<path d="M3511 1054 c-883 -316 -1611 -580 -1618 -586 -18 -15 -16 -73 3 -92
14 -14 175 -16 1620 -16 l1604 0 0 635 c0 349 -1 635 -2 634 -2 0 -725 -259
-1607 -575z"/>
</g>
</svg>
